<?xml version="1.0" encoding="utf-8"?>
<!-- Generator: Adobe Illustrator 24.3.0, SVG Export Plug-In . SVG Version: 6.00 Build 0)  -->
<svg version="1.0"
	 id="svg7" xmlns:cc="http://creativecommons.org/ns#" xmlns:dc="http://purl.org/dc/elements/1.1/" xmlns:inkscape="http://www.inkscape.org/namespaces/inkscape" xmlns:rdf="http://www.w3.org/1999/02/22-rdf-syntax-ns#" xmlns:sodipodi="http://sodipodi.sourceforge.net/DTD/sodipodi-0.dtd" xmlns:svg="http://www.w3.org/2000/svg"
	 xmlns="http://www.w3.org/2000/svg" xmlns:xlink="http://www.w3.org/1999/xlink" x="0px" y="0px" viewBox="0 0 433 318"
	 style="enable-background:new 0 0 433 318;" xml:space="preserve">
<style type="text/css">
	.st0{fill-rule:evenodd;clip-rule:evenodd;fill:#213E5F;}
</style>
<sodipodi:namedview  bordercolor="#666666" borderopacity="1" fit-margin-bottom="0" fit-margin-left="0" fit-margin-right="0" fit-margin-top="0" gridtolerance="10" guidetolerance="10" id="namedview9" inkscape:current-layer="Logo" inkscape:cx="379.01371" inkscape:cy="242.81082" inkscape:pageopacity="0" inkscape:pageshadow="2" inkscape:window-height="1001" inkscape:window-maximized="1" inkscape:window-width="1920" inkscape:window-x="-9" inkscape:window-y="-9" inkscape:zoom="1.0733881" objecttolerance="10" pagecolor="#ffffff" showgrid="false">
	</sodipodi:namedview>
<g id="Logo_Muted_InternationalHellenicUniversity" transform="translate(-86.0803,-27.860342)">
	<g id="Logo" transform="translate(64.999935,44)">
		<path id="Shape" class="st0" d="M59.51,126.43l0.14,0.12l0.15,0.14l0.15,0.16l0.16,0.17l0.16,0.18l0.32,0.39l0.71,0.89l0.3,0.36
			l0,0l0.15,0.16c2.07,2.08,2.77,4.96,3.13,7.92l0.08,0.74l0.07,0.74l0.12,1.47l0.09,1.08l0.06,0.71c0.06,0.59,0.12,1.16,0.2,1.71
			l0.08,0.49l0.54,0.71l0.2,0.37c-0.2-0.62-0.38-1.72-0.42-2.51c-0.04-0.73,0.08-1.5,0.23-2.28l0.22-1.16
			c0.31-1.76,1.57-4.15,2.73-5.44c0.76-0.86,1.06-0.64,1.16-0.07l0.02,0.17l0.01,0.19l0,0.2l-0.01,0.32l-0.02,0.33l-0.12,1.13
			c-0.31,3.24-1.24,6.68-3.46,9.11l-0.22,0.23l5.42,9.93c0.2,0.4,0.46,0.84,0.75,1.3c-0.64-2.89-1.1-6.98-0.39-9.21
			c0.52-1.61,1.07-2.68,1.7-3.78l0.94-1.6l0,0l0.29-0.51l0,0l0.22-0.41c0.5-0.93,0.89-0.79,1.16-0.07l0.07,0.2l0.07,0.22l0.03,0.12
			l0,0l0.09,0.39l0,0l0.05,0.29l0.07,0.46l0.06,0.49l0.05,0.51l0.04,0.53l0.02,0.36l0.02,0.42c0.03,0.63,0.05,1.26,0.05,1.85l0,0.63
			l-0.01,0.47l-0.02,0.43l-0.02,0.39l-0.03,0.34c-0.02,0.21-0.04,0.39-0.07,0.52c-0.29,1.42-1.04,2.78-1.81,4.1l-0.51,0.87
			c-0.59,1-1.14,1.98-1.45,2.94c0.42,0.61,0.88,1.26,1.37,1.91l0.74,0.98l1.12,1.45l1.41,1.82l0.63,0.82
			c0.1,0.13,0.19,0.26,0.28,0.38c0.44,0.59,0.9,1.16,1.38,1.72l-0.13-0.47c-0.98-3.52-1.49-7.01-1.05-11.01
			c0.14-1.22,0.86-2.79,1.69-4.31l0.39-0.7l0.39-0.68l1.1-1.88l0.31-0.54l0,0c0.34-0.61,0.65-0.34,0.91,0.37l0.09,0.27l0.09,0.3
			l0.08,0.33l0.04,0.17l0,0l0.08,0.36l0.07,0.38l0.07,0.4l0.07,0.4l0.09,0.61l0.1,0.81l0.08,0.77l0.06,0.69l0.05,0.7l0.01,0.31
			l0,0.15l0,0.06c-0.21,3.44-1.02,5.79-2.22,8.48l-0.39,0.86l-0.85,1.84c-0.07,0.15-0.13,0.33-0.19,0.53l-0.22,0.71l-0.09,0.25
			c-0.06,0.15-0.12,0.28-0.18,0.36c5.9,6.52,14.66,10.75,22.81,13.7c-0.04-0.09-0.08-0.24-0.11-0.44c-0.08-0.54-0.49-1.15-0.6-1.78
			l-0.15-0.49c-0.02-0.08-0.05-0.17-0.07-0.26l-0.14-0.54l-0.14-0.57l-0.13-0.6c-0.09-0.41-0.17-0.84-0.24-1.28l-0.11-0.67
			l-0.1-0.69l-0.08-0.65c-0.55-4.83-0.19-10.45,2.8-12.7c0.1-0.07,0.24,0.15,0.39,0.58l0.12,0.37l0,0l0.18,0.64l0,0l0.17,0.65
			l0.17,0.73l0.17,0.8l0.11,0.57l0.17,0.89l0.11,0.62l0.1,0.63l0.15,0.96l0.09,0.64l0.08,0.65l0.08,0.64l0.1,0.95l0.06,0.62
			l0.05,0.6l0.03,0.58l0.02,0.56c0.04,1.46-0.04,2.64-0.34,3.22c-0.12,0.25-0.24,0.52-0.35,0.8l-0.33,0.86
			c-0.3,0.77-0.63,1.55-1.13,2.11l-0.2,0.2c-0.08,0.08-0.17,0.19-0.25,0.32l-0.22,0.34c-0.07,0.1-0.13,0.18-0.19,0.23l0.76,0.27
			l2.22,0.77c8.13,2.82,16.33,5.42,24.82,6.83l1.16,0.18l1.32,3.39c-2.64-1.01-5.55-1.86-8.59-2.68l-1.84-0.49l-3.77-0.99
			c-4.77-1.26-9.7-2.64-14.41-4.6c0.91,1.26,1.25,3.07,1.28,4.04l0,0.12l-0.01,0.27l-0.02,0.3l-0.03,0.33
			c-0.01,0.06-0.01,0.12-0.02,0.17l-0.05,0.36c-0.01,0.06-0.02,0.13-0.03,0.19l-0.07,0.39l-0.04,0.2l-0.09,0.4l-0.11,0.4
			c-0.51,1.74-1.43,3.42-2.86,3.21c-2.24-0.32-3.12-2.75-3.41-4.63l-0.05-0.37c-0.01-0.06-0.01-0.12-0.02-0.18l-0.03-0.35L99.79,188
			l0-0.47l0.01-0.36l0.02-0.38l0.03-0.4l0.05-0.42c0.21-1.69,0.83-3.57,2.45-3.88l-0.11-0.05l-0.72-0.35
			c-7.47,7.57-17.77,10.65-26.63,8.25c-1.49-0.4-1.5-0.92-0.88-1.45l0.16-0.12l0.18-0.12l0.25-0.15l0,0l0.27-0.15l0.23-0.12
			l0.24-0.12l0.5-0.23l0.39-0.16l0.59-0.24l0.91-0.35c3.88-1.49,7.86-2.34,11.83-3.14l2.98-0.59c2.65-0.53,5.28-1.09,7.88-1.85
			l-2.28-1.11l-1.48-0.73l-1.44-0.72c-4.74-2.4-8.9-4.8-12.7-8.04l-0.91,0.94l-0.58,0.59l-0.28,0.28l-0.56,0.55
			c-3.13,3.03-5.81,4.84-11.06,6.29c-2.96,0.82-8.85,1.25-11.75,0.32c-0.15-0.05-0.12-0.2,0.04-0.41l0.13-0.15
			c0.02-0.03,0.05-0.05,0.08-0.08l0.18-0.17c0.03-0.03,0.07-0.06,0.1-0.09l0.26-0.22l0.14-0.12l0,0l0.3-0.24l0.32-0.25l0.51-0.38
			l0.53-0.37l0.52-0.36l0.66-0.43l0.44-0.28l0.37-0.23l0.28-0.16l0.07-0.04c4.85-2.47,8.98-3.94,14.05-5.15l0.8-0.19l0,0l0.16-0.03
			l0,0l0.29-0.04l0.35-0.05l0.62-0.07l0.7-0.07l0.9-0.07l1.02-0.07l0,0l0.47-0.02l0,0c-2.13-1.92-4.14-4.14-6.08-6.81l0.09-0.13
			c-0.22,0.33-0.44,0.55-0.66,0.76l-0.26,0.24c-0.04,0.04-0.09,0.08-0.13,0.13l-0.59,0.16l-1.65,0.46c-1.59,0.44-3.05,0.8-4.86,0.95
			c-2.53,0.21-4.78,0.01-7.23-0.55l-1.07-0.26l-0.36-0.09c-0.43-0.12-0.88-0.27-1.09-0.44c-0.07-0.06,0.14-0.2,0.48-0.37l0.27-0.13
			l0.3-0.14l0.62-0.27l0.87-0.36c3.95-1.55,9.9-2.13,13.91-0.79c0.1,0.03,0.22,0.05,0.36,0.07l0.52,0.06
			c-0.32-0.46-0.64-0.93-0.96-1.42l-0.37-0.58l-0.72-1.11l-0.34-0.54l0,0l-0.65-1.05l-0.62-1.01l-0.3-0.5l0,0l-0.57-0.98
			c-0.19-0.32-0.37-0.64-0.54-0.96l-0.06,0.01l-0.41,0.01c-0.34,0.01-0.78,0.05-1.15,0.25c-0.71,0.37-2.03,0.8-3.54,1.16l-0.71,0.16
			c-2.39,0.5-5.04,0.77-6.37,0.29l-0.24-0.1l-0.26-0.09l-1.01-0.33l-0.48-0.17l-0.3-0.11l-0.22-0.09c-0.35-0.16-0.56-0.3-0.46-0.4
			c0.42-0.41,1.93-0.98,2.46-1.1l1.83-0.43c2.54-0.59,4.89-1.04,7.78-0.65c0.25,0.03,0.57,0.17,0.93,0.35l0.38,0.19l0.61,0.33
			l0.96,0.49l0.16,0.09c-1.08-1.95-2.03-3.85-3.02-5.99l-0.6-1.32l-0.3-0.68l0,0l-0.34-0.79c-0.09,0.42-0.83,0.77-1.6,1.03
			l-0.58,0.18l0,0l-0.54,0.15l-0.65,0.17c-2.08,0.56-5.63,0.06-7.54-0.92l-0.3-0.17l-0.5-0.31l-0.31-0.2l-0.19-0.13l-0.16-0.12
			l-0.06-0.05l0,0l-0.08-0.08c-0.05-0.06-0.04-0.09,0.04-0.08c0.43,0.04,1.18,0.09,1.61,0c0.31-0.06,0.66-0.12,1.03-0.17l0.57-0.07
			l0.6-0.07l0.62-0.06l0.64-0.05l0.65-0.04l0.33-0.02l0,0l0.66-0.02c0.22-0.01,0.43-0.01,0.65-0.01l0.64,0l0.62,0.01
			c0.2,0.01,0.4,0.01,0.6,0.02l0.57,0.03l0.49,0.04c0.95,0.1,1.69,0.27,2.02,0.52l-0.09-0.21c-0.1-0.22-0.15-0.43-0.19-0.64
			l-0.15-0.12l-0.32-0.26l-0.52-0.44l-0.81-0.71l-0.42-0.37c-0.83-0.76-1.51-1.93-2.06-2.99l-0.47-0.91
			c-1.1-2.17-1.32-4.48-1.43-6.83l-0.09-2.21c-0.02-0.44-0.05-0.89-0.08-1.33l-0.04-0.44c-0.09-1,0.13-1.22,0.49-1.03l0.12,0.07l0,0
			C59.38,126.33,59.51,126.43,59.51,126.43z M241.39,170.16c0.31,0,0.47,0.1,0.51,0.31l0.01,0.08c0,0.14-0.17,0.29-0.51,0.45
			c-0.46,0.22-0.85,0.71-1.18,1.47l-7.51,17.71c-0.14,0.38-0.3,0.77-0.46,1.16c-0.17,0.39-0.35,0.58-0.53,0.58
			c-0.2,0-0.41-0.24-0.63-0.72c-0.16-0.38-0.32-0.77-0.48-1.17l-7.45-17.56c-0.28-0.68-0.76-1.14-1.45-1.38
			c-0.58-0.2-0.87-0.37-0.87-0.51c0-0.28,0.14-0.42,0.42-0.42l0.31,0l0.38,0.01l0.45,0.02l0.68,0.04l0.54,0.03l0.4,0.01l0.29,0
			l0.37-0.01l0.44-0.02l1.1-0.07l0.18-0.01c0.28,0,0.42,0.1,0.42,0.3c0,0.06-0.12,0.18-0.37,0.35l-0.24,0.16
			c-0.41,0.26-0.62,0.6-0.62,1.02c0,0.36,0.09,0.76,0.27,1.18l5.28,12.39l0.73,1.74c0.18,0.36,0.34,0.54,0.48,0.54
			c0.13,0,0.29-0.23,0.48-0.68l5.31-13.06c0.36-0.9,0.5-1.59,0.42-2.05c0-0.48-0.27-0.8-0.81-0.97l-0.15-0.04
			c-0.64-0.15-0.97-0.32-0.97-0.5c0-0.26,0.15-0.39,0.45-0.39l0.26,0.01l0,0l0.33,0.02l0.81,0.07l0.33,0.02l0.14,0l0,0l0.12,0
			c0.45,0,0.87-0.01,1.25-0.04l0.94-0.07L241.39,170.16z M183.99,170.16c0.23,0,0.36,0.08,0.39,0.25l0.01,0.08
			c0,0.18-0.12,0.33-0.35,0.46l-0.11,0.05c-0.42,0.2-0.71,0.41-0.87,0.63c-0.3,0.4-0.45,1-0.45,1.8v9.32c0,5.93-2.8,8.9-8.41,8.9
			c-3.62,0-6.18-0.93-7.69-2.8c-1.17-1.42-1.75-3.51-1.75-6.26v-10.13c0-0.45-0.17-0.79-0.51-1.01l-0.12-0.07
			c-0.01-0.01-0.04-0.02-0.07-0.04l-0.14-0.05l-0.32-0.11l-0.46-0.14l-0.18-0.05c-0.42-0.1-0.63-0.28-0.63-0.54
			c0-0.2,0.22-0.3,0.66-0.3l0.26,0l0.32,0.01l0.38,0.02l0.43,0.03l0.38,0.02l0.33,0.01l0.27,0l0.43-0.01l0.57-0.03l0.9-0.05
			l0.56-0.03l0.41-0.01c0.64,0,0.96,0.1,0.96,0.3c0,0.2-0.17,0.35-0.52,0.45l-0.34,0.1c-0.31,0.1-0.53,0.2-0.65,0.29
			c-0.34,0.26-0.51,0.7-0.51,1.32v10.79c0,2.31,0.69,4.07,2.08,5.29c1.27,1.14,2.97,1.71,5.13,1.71c4.64,0,6.97-2.43,6.97-7.28
			v-9.74c0-0.88-0.24-1.5-0.72-1.86c-0.22-0.18-0.67-0.34-1.36-0.48c-0.48-0.12-0.72-0.32-0.72-0.6c0-0.2,0.1-0.3,0.3-0.3l0.34,0
			l0.64,0.02l1.52,0.07l0.58,0.02l0.45,0.01l0.1,0l0,0l0.24-0.01l0,0l0.29-0.02l0,0l0.54-0.06l0.27-0.02
			C183.86,170.16,183.93,170.16,183.99,170.16L183.99,170.16z M291.31,169.89c1.06,0,2.01,0.09,2.83,0.27
			c0.54,0.12,1.05,0.3,1.54,0.54l0.38,0.17l0.17,0.07c0.07,0.03,0.12,0.04,0.14,0.04c0.06,0,0.14-0.04,0.23-0.11l0.07-0.06
			c0.12-0.11,0.23-0.17,0.33-0.17c0.2,0,0.32,0.14,0.36,0.42l0.46,4.09c0.04,0.3-0.07,0.45-0.33,0.45c-0.22,0-0.43-0.3-0.63-0.9
			c-0.45-1.26-1.17-2.23-2.19-2.9c-1.01-0.67-2.2-1.01-3.57-1.01c-1.33,0-2.44,0.3-3.35,0.9c-1.05,0.72-1.57,1.72-1.57,3.01
			c0,1.52,1.05,2.67,3.16,3.43c1.97,0.68,3.94,1.35,5.91,2.01c2.03,1.08,3.08,2.72,3.16,4.94l0.01,0.27c0,1.6-0.58,2.97-1.75,4.09
			c-1.51,1.48-3.8,2.23-6.87,2.23c-1.05,0-2.16-0.21-3.35-0.63c-1.11-0.38-1.69-0.72-1.75-1.02l-0.75-3.88
			c-0.12-0.62-0.01-0.93,0.33-0.93c0.18,0,0.31,0.09,0.39,0.27l0.18,0.72c0.26,1,0.85,1.92,1.75,2.77c1.22,1.16,2.75,1.74,4.58,1.74
			c1.55,0,2.85-0.4,3.92-1.2c1.16-0.86,1.75-2.05,1.75-3.55c0-1.59-1.06-2.76-3.17-3.52l-5.91-1.99c-2.11-1.04-3.17-2.68-3.17-4.9
			c0-1.8,0.68-3.23,2.05-4.27C287.89,170.35,289.44,169.89,291.31,169.89L291.31,169.89z M208.1,170.16c0.18,0,0.27,0.07,0.3,0.2
			l0.01,0.07c0,0.2-0.15,0.36-0.45,0.48c-0.42,0.2-0.71,0.37-0.87,0.51c-0.3,0.32-0.45,0.8-0.45,1.44v17.41
			c0,0.86-0.09,1.29-0.27,1.29c-0.26,0-0.63-0.29-1.14-0.85l-12.97-14.55l-0.21-0.23c-0.22-0.23-0.36-0.35-0.43-0.35
			c-0.14,0-0.21,0.23-0.21,0.69v12.3c0,0.78,0.23,1.33,0.69,1.65c0.24,0.18,0.66,0.32,1.27,0.42c0.46,0.06,0.69,0.19,0.69,0.39
			c0,0.26-0.11,0.39-0.33,0.39l-0.51-0.02l-0.72-0.04c-0.64-0.04-1.24-0.06-1.81-0.06l-0.54,0.01l-0.67,0.03l-1.62,0.09
			c-0.26,0-0.39-0.11-0.39-0.33c0-0.24,0.23-0.42,0.69-0.54c0.58-0.18,1-0.43,1.27-0.75c0.46-0.54,0.69-1.42,0.69-2.65v-11.1
			c0-1.82-0.31-3.16-0.93-4c-0.4-0.5-1-0.85-1.78-1.05c-0.62-0.16-0.94-0.35-0.94-0.57c0-0.2,0.15-0.3,0.46-0.3
			c0.09,0,0.22,0.01,0.37,0.02l0.68,0.08c0.15,0.01,0.27,0.02,0.37,0.02c0.13,0,0.31-0.01,0.53-0.04l0.46-0.06l0.23-0.02
			c0.07,0,0.12-0.01,0.17-0.01c0.06,0,0.18,0.08,0.36,0.25l0.2,0.19l0.23,0.25l0,0l14.44,16.03l0,0l0.1,0.1l0,0l0.11,0.11
			c0.05,0.04,0.08,0.06,0.1,0.06c0.06,0,0.09-0.11,0.09-0.33v-12.57c0-1.14-0.29-1.99-0.88-2.53c-0.28-0.27-0.74-0.49-1.36-0.66
			l-0.24-0.06c-0.58-0.14-0.88-0.32-0.88-0.54c0-0.2,0.11-0.3,0.33-0.3l0.26,0l0.49,0.02l0.61,0.04l0.25,0.02l0.45,0.02l0.54,0.02
			l0.29,0l0.34-0.01l0.64-0.03l1.26-0.06l0.59-0.02L208.1,170.16z M218,170.16c0.38,0,0.57,0.1,0.57,0.3c0,0.16-0.15,0.29-0.44,0.38
			l-0.13,0.04c-0.5,0.14-0.84,0.28-1.02,0.42c-0.39,0.3-0.57,0.78-0.57,1.44v16.15c0,0.58,0.23,1.01,0.69,1.29
			c0.05,0.03,0.13,0.06,0.23,0.1l0.23,0.08l0.29,0.09l0.55,0.15l0,0c0.41,0.12,0.64,0.28,0.69,0.47l0.01,0.07c0,0.2-0.2,0.3-0.6,0.3
			l-0.43-0.01l-1.61-0.08l-0.55-0.02l-0.48-0.01l-0.22,0c-0.58,0-1.12,0.01-1.61,0.04l-1.28,0.08c-0.42,0-0.63-0.15-0.63-0.45
			c0-0.2,0.2-0.36,0.6-0.48c0.54-0.14,0.93-0.31,1.15-0.51c0.4-0.38,0.6-1,0.6-1.87v-15.4c0-0.64-0.21-1.11-0.63-1.41
			c-0.19-0.14-0.52-0.27-0.97-0.4l-0.2-0.05c-0.42-0.1-0.63-0.23-0.63-0.39c0-0.22,0.1-0.33,0.3-0.33l0.32,0l0.6,0.02l1.5,0.07
			l0.41,0.01l0.48,0.01l0.43-0.01l0.55-0.03l0.88-0.05l0.54-0.03L218,170.16z M270.1,170.16l0.14,0c1.65,0,2.91,0.14,3.77,0.42
			c2.25,0.76,3.38,2.35,3.38,4.78c0,1.14-0.36,2.19-1.08,3.12c-0.72,0.94-1.62,1.64-2.7,2.08l5.02,7.62
			c0.62,0.96,1.27,1.65,1.93,2.08c0.34,0.22,0.76,0.39,1.27,0.51c0.26,0.05,0.41,0.14,0.44,0.27l0.01,0.06
			c0,0.13-0.18,0.22-0.55,0.28l-0.27,0.04l-0.33,0.03l-0.38,0.02c-0.14,0-0.28,0.01-0.43,0.01c-1.01,0-1.9-0.32-2.69-0.96
			c-0.56-0.48-1.17-1.24-1.84-2.29l-3.34-5.26c-0.08-0.13-0.16-0.26-0.24-0.37l-0.22-0.32c-0.31-0.43-0.55-0.69-0.72-0.76
			c-0.06-0.02-0.15-0.04-0.29-0.06l-0.23-0.02l-0.29-0.02l-0.35-0.02l-0.63-0.02l-0.76-0.01l-0.28,0c-0.42,0-0.67,0.1-0.75,0.3
			l-0.01,0.03l-0.01,0.11l-0.01,0.17l0,0.23v6.35c0,0.74,0.27,1.28,0.81,1.62c0.1,0.06,0.23,0.12,0.42,0.18l0.3,0.1
			c0.06,0.02,0.11,0.03,0.17,0.05l0.4,0.1l0.22,0.05c0.55,0.12,0.82,0.31,0.82,0.57c0,0.14-0.13,0.22-0.39,0.24l-0.11,0l-0.89-0.06
			l-0.55-0.03l-0.61-0.02l-0.33-0.01l0,0l-0.71-0.01h-0.53l-0.36,0.01l-0.67,0.03l-1.07,0.05l-0.67,0.03l-0.51,0.01
			c-0.2,0-0.3-0.11-0.3-0.33c0-0.18,0.19-0.35,0.57-0.51c0.52-0.2,0.87-0.39,1.06-0.57c0.38-0.36,0.57-0.87,0.57-1.54V173.2
			c0-0.84-0.22-1.42-0.66-1.74c-0.22-0.16-0.64-0.3-1.27-0.42c-0.44-0.1-0.66-0.27-0.66-0.51s0.2-0.36,0.61-0.36l0.06,0l0.27,0.02
			l0.26,0.03c0.11,0.02,0.24,0.03,0.39,0.04l0.34,0.01l0.39,0.01l0.41,0l0.66-0.01l1.41-0.04l1.67-0.05L270.1,170.16z
			 M258.59,170.16c0.2,0,0.3,0.22,0.3,0.66l0,0.53l-0.01,0.49l-0.02,0.44l-0.03,0.5l0,0l-0.04,0.43l-0.04,0.3
			c-0.1,0.6-0.25,0.89-0.45,0.89c-0.26,0-0.41-0.27-0.46-0.81c-0.04-0.68-0.13-1.12-0.27-1.32c-0.3-0.41-1.02-0.67-2.16-0.79
			l-0.3-0.03l-0.47-0.01l-1.68-0.01l-1.01,0l-0.44,0.01l-0.39,0.01l-0.34,0.02l-0.28,0.02c-0.3,0.03-0.49,0.07-0.58,0.13
			c-0.2,0.12-0.3,0.62-0.31,1.49l0,5.8c0,0.52,0.04,0.82,0.14,0.9c0.05,0.05,0.2,0.08,0.43,0.1l0.26,0.01l0.15,0l0,0l3.42,0
			c0.93,0,1.6-0.21,2.02-0.63c0.23-0.21,0.41-0.53,0.55-0.95l0.06-0.19c0.12-0.42,0.26-0.63,0.42-0.63c0.22,0,0.33,0.19,0.33,0.57
			l-0.01,0.66l-0.05,1.94l0,0.43l0.02,0.96l0.03,0.82l0.01,0.47l0,0.13c0,0.26-0.11,0.39-0.33,0.39c-0.22,0-0.38-0.23-0.48-0.69
			c-0.14-0.64-0.28-1.06-0.42-1.26c-0.3-0.46-0.81-0.69-1.54-0.69h-4.46c-0.28,0-0.45,0.1-0.51,0.3l-0.01,0.1l-0.01,0.17l-0.01,0.24
			l0,5.9l0.01,0.5l0,0l0.02,0.42c0.03,0.4,0.09,0.66,0.17,0.79c0.24,0.38,0.93,0.57,2.08,0.57c2.05,0,3.78-0.27,5.19-0.81
			c0.86-0.32,1.58-0.74,2.17-1.27l0.81-0.78l0.16-0.16l0.05-0.06c0.01-0.01,0.01-0.02,0.01-0.02c0.14,0,0.22,0.09,0.24,0.27
			l0.01,0.1c0,0.84-0.5,1.81-1.51,2.92c-0.44,0.48-0.9,0.78-1.36,0.9c-0.18,0.06-0.5,0.09-0.95,0.11l-0.42,0.01l-0.67,0l-1.25-0.03
			l-1.75-0.06l-1.12-0.03l-0.98-0.01l-0.58,0l-0.91,0.01l-1.02,0.03l-0.67,0.03l-0.54,0.03l-0.71,0.03l-0.58,0.01l0,0
			c-0.3,0-0.45-0.1-0.45-0.3c0.02-0.16,0.2-0.32,0.54-0.48l0.78-0.3c0.36-0.18,0.6-0.49,0.72-0.93c0.05-0.21,0.09-0.54,0.11-0.96
			l0.01-0.46l0-14.22l-0.01-0.45c-0.03-0.56-0.09-0.97-0.19-1.23c-0.22-0.64-0.69-1.01-1.42-1.11c-0.61-0.16-0.91-0.32-0.91-0.48
			c0-0.24,0.35-0.36,1.06-0.36l1.79,0l1.66,0.01l1.03,0.01l0.97,0.02l3.12,0.07l1.55-0.04l2.14-0.07L258.59,170.16z M308.51,170.16
			c0.38,0,0.57,0.1,0.57,0.3c0,0.16-0.15,0.29-0.44,0.38l-0.13,0.04c-0.5,0.14-0.85,0.28-1.03,0.42c-0.38,0.3-0.57,0.78-0.57,1.44
			v16.15c0,0.58,0.23,1.01,0.69,1.29c0.07,0.04,0.18,0.09,0.34,0.14l0.26,0.08l0.32,0.09l0.38,0.1c0.46,0.14,0.69,0.32,0.69,0.54
			c0,0.18-0.16,0.28-0.48,0.3l-0.18,0l-0.5-0.02l-1.18-0.06l-0.59-0.03l-0.52-0.02l-0.45-0.01c-0.58,0-1.11,0.01-1.61,0.04
			l-1.28,0.08c-0.42,0-0.63-0.15-0.63-0.45c0-0.2,0.2-0.36,0.61-0.48c0.54-0.14,0.92-0.31,1.14-0.51c0.4-0.38,0.6-1,0.6-1.86v-15.4
			c0-0.64-0.21-1.11-0.63-1.41c-0.19-0.14-0.52-0.27-0.97-0.4l-0.2-0.05c-0.42-0.1-0.63-0.23-0.63-0.39c0-0.22,0.1-0.33,0.3-0.33
			l0.5,0.01l0.42,0.01l1.5,0.07l0.59,0.02l0.31,0l0.27,0l0.51-0.02l1.27-0.07l0.35-0.01L308.51,170.16z M330.59,170.16l-0.03,0
			c0.34,0,0.57,0.06,0.68,0.18c0.11,0.12,0.18,0.35,0.19,0.69l0.15,2.41c0.02,0.44-0.09,0.66-0.33,0.66c-0.28,0-0.44-0.2-0.48-0.6
			c-0.06-0.54-0.16-0.9-0.3-1.08c-0.3-0.4-0.9-0.6-1.78-0.6h-4.31c-0.12,0-0.23,0-0.33,0l-0.27,0.01c-0.28,0.02-0.45,0.06-0.49,0.12
			c-0.03,0.04-0.05,0.14-0.07,0.3l-0.02,0.22l-0.01,0.28l-0.01,0.34l0,15.53c0,0.72,0.21,1.24,0.63,1.56
			c0.18,0.12,0.5,0.24,0.97,0.37l0.21,0.05c0.42,0.1,0.63,0.26,0.63,0.48c0,0.24-0.09,0.36-0.27,0.36l-0.2,0l-0.26-0.01l-0.7-0.04
			l-0.23-0.02l-0.41-0.03l-0.35-0.02l-0.29-0.01l-1.39,0.01l-1.15,0.02l0,0l-0.84,0.04l-0.33,0.02l-0.43,0.03
			c-0.24,0-0.36-0.13-0.36-0.39c0-0.18,0.2-0.35,0.61-0.51l0.37-0.13l0.31-0.12c0.23-0.09,0.4-0.17,0.5-0.24
			c0.4-0.3,0.61-0.71,0.61-1.23V173.2c0-0.92-0.1-1.39-0.3-1.39h-4.92c-0.86,0-1.45,0.14-1.75,0.42c-0.12,0.13-0.27,0.43-0.44,0.88
			l-0.17,0.47l0,0l-0.11,0.33c-0.14,0.46-0.31,0.69-0.51,0.69c-0.2,0-0.3-0.12-0.3-0.36l0.33-2.92l0.09-0.72
			c0.08-0.3,0.23-0.45,0.45-0.45l0.99,0.01l4.68,0.09l1.79,0.02l1.11,0l1.64,0l2.36-0.02l0,0l1.5-0.02L330.59,170.16z
			 M351.48,170.16c0.19,0,0.3,0.09,0.33,0.28l0.01,0.08c0,0.14-0.08,0.26-0.26,0.35l-0.32,0.16l-0.14,0.07l0,0
			c-0.28,0.16-0.66,0.58-1.13,1.24l-0.27,0.39l-0.14,0.21l0,0l-4.48,6.95l-0.27,0.44l-0.14,0.24l-0.1,0.2
			c-0.07,0.15-0.11,0.25-0.11,0.31v7.37c0,0.76,0.21,1.31,0.63,1.65c0.2,0.16,0.6,0.33,1.21,0.51c0.42,0.14,0.63,0.32,0.63,0.54
			c0,0.18-0.19,0.28-0.56,0.3l-0.16,0l-2.38-0.1l-0.59-0.02l-0.31,0c-0.41,0-0.84,0.01-1.3,0.03l-1.42,0.09
			c-0.3,0-0.45-0.12-0.45-0.36c0-0.2,0.2-0.36,0.6-0.48l0.39-0.1c0.35-0.1,0.59-0.2,0.73-0.29c0.4-0.26,0.6-0.7,0.6-1.32v-7.27
			c0-0.26-0.2-0.71-0.6-1.35l-5.13-8.22c-0.3-0.48-0.77-0.82-1.41-1.02c-0.57-0.16-0.85-0.3-0.85-0.42c0-0.3,0.13-0.45,0.39-0.45
			l0.57,0.02l0.69,0.04c0.67,0.04,1.4,0.06,2.19,0.06c0.3,0,0.65-0.01,1.02-0.04l1.09-0.08c0.38,0,0.57,0.1,0.57,0.3
			c0,0.12-0.19,0.29-0.56,0.49l-0.15,0.08c-0.47,0.24-0.71,0.52-0.71,0.84c0,0.24,0.18,0.65,0.54,1.23l3.65,5.8
			c0.22,0.36,0.42,0.54,0.6,0.54c0.12,0,0.29-0.16,0.49-0.48l3.19-5.14c0.42-0.68,0.63-1.23,0.63-1.65c0-0.52-0.33-0.87-0.97-1.03
			l-0.16-0.04c-0.76-0.15-1.13-0.32-1.13-0.49c0-0.3,0.21-0.45,0.63-0.45l0.24,0l0.3,0.01l1.13,0.08l0.3,0.01l0.24,0l0.29,0
			l0.36-0.01l0.43-0.02l0.83-0.05l0.32-0.01L351.48,170.16z M86.15,174.54c2.31,0.7,2.36,2.24,1.92,3.4l-0.09,0.21
			c-0.02,0.03-0.03,0.07-0.05,0.1l-0.1,0.2c-0.05,0.09-0.11,0.18-0.16,0.27l-0.11,0.16l-0.11,0.14c-0.19,0.23-0.54,0.56-0.99,0.9
			l-0.32,0.23c-1.49,1.05-3.81,2.16-5.5,1.44c-1.94-0.82-1.93-2.24-1.44-3.38l0.11-0.23l0.06-0.11l0.12-0.22l0.06-0.1l0,0l0.13-0.2
			l0.13-0.18l0.13-0.17l0.15-0.17l0.19-0.21c0.03-0.04,0.07-0.07,0.11-0.11l0.23-0.23c0.08-0.08,0.17-0.16,0.26-0.24l0.29-0.24
			C82.36,174.83,84.13,173.92,86.15,174.54z M269.37,171.15c-0.67,0-1.09,0.04-1.27,0.12c-0.3,0.14-0.45,0.47-0.45,0.99v7.64
			c0,0.24,0.37,0.38,1.11,0.42h2.17c1.01,0,1.87-0.25,2.59-0.75c1-0.68,1.53-1.76,1.59-3.24l0.01-0.28c0-1.7-0.59-2.98-1.78-3.82
			C272.34,171.51,271.01,171.15,269.37,171.15L269.37,171.15z M94.98,151.28l0.25,1.8l0.12,0.89l0.11,0.88
			c0.41,3.66,0.42,7.14-1.19,10.8l-0.16,0.34l-0.21,0.42l-0.26,0.49l-0.41,0.74l-0.34,0.6l-0.24,0.41l-0.38,0.63l-0.27,0.42
			l-0.27,0.41l-0.27,0.41l-0.28,0.39l-0.35,0.47l0,0l-0.34,0.44l-0.27,0.32c-0.8,0.92-1.52,1.43-1.94,1.03l0.01-0.57l0.02-1.12
			l0.03-2.69l0.02-1.04c0.07-3.78,0.36-7.24,1.93-11.06l0.27-0.62l0.5-1.12l0.3-0.64l0.22-0.46l0.27-0.55l0.21-0.42l0.29-0.55
			l0.22-0.4l0.15-0.25l0.15-0.24l0.15-0.23l0.19-0.27l0,0l0.18-0.24l0.14-0.17l0.14-0.15C94.27,149.78,94.77,149.85,94.98,151.28z
			 M307.09,136.95c1.67,0,3.15,0.2,4.43,0.6c0.82,0.26,1.64,0.63,2.44,1.11l0.18,0.1l0.31,0.18c0.05,0.03,0.09,0.05,0.14,0.07
			l0.24,0.12c0.18,0.08,0.3,0.12,0.37,0.12c0.06,0,0.15-0.03,0.26-0.1l0.09-0.05c0.15-0.1,0.28-0.15,0.38-0.15
			c0.14,0,0.23,0.12,0.28,0.37l0.03,0.17l0.02,0.15l0.03,0.45l0.03,0.48l0.03,0.82l0.09,1.14l0.03,0.68l0,0.17
			c0,0.4-0.1,0.6-0.3,0.6c-0.12,0-0.24-0.1-0.36-0.31l-0.06-0.11c-0.1-0.18-0.19-0.37-0.27-0.57c-1-1.73-2.07-2.99-3.2-3.79
			c-1.29-0.92-2.85-1.38-4.7-1.38c-2.85,0-5.05,0.88-6.57,2.65c-1.43,1.67-2.14,3.95-2.14,6.86c0,2.83,0.75,5.22,2.23,7.19
			c1.65,2.18,3.84,3.28,6.57,3.28c2.11,0,4-0.56,5.67-1.68c1.25-0.84,2.06-1.68,2.4-2.53l0.07-0.18c0.08-0.26,0.22-0.39,0.42-0.39
			c0.21,0,0.31,0.08,0.29,0.25l-0.71,3.08c-0.07,0.28-0.57,0.63-1.5,1.05l-0.43,0.18c-1.83,0.76-4.17,1.14-7.03,1.14
			c-3.12,0-5.66-0.97-7.64-2.92c-1.98-1.94-2.97-4.46-2.97-7.55c0-3.17,1.03-5.84,3.07-8.03
			C301.36,138.04,303.95,136.95,307.09,136.95L307.09,136.95z M280.89,137.22c0.17,0,0.27,0.07,0.3,0.2l0.01,0.07
			c0,0.2-0.15,0.36-0.45,0.48c-0.42,0.2-0.72,0.37-0.88,0.51c-0.3,0.32-0.45,0.8-0.45,1.44v17.41l-0.01,0.34
			c-0.02,0.63-0.11,0.95-0.27,0.95c-0.26,0-0.63-0.28-1.14-0.85l-12.97-14.54l-0.21-0.23l-0.17-0.17c-0.13-0.12-0.21-0.18-0.25-0.18
			c-0.14,0-0.21,0.23-0.21,0.69v12.3c0,0.78,0.23,1.33,0.69,1.65c0.24,0.18,0.66,0.32,1.26,0.42c0.46,0.06,0.69,0.19,0.69,0.39
			c0,0.26-0.11,0.39-0.33,0.39l-0.26-0.01l-0.77-0.04l-0.21-0.01c-0.64-0.04-1.25-0.06-1.81-0.06l-0.34,0l-0.4,0.01l-0.72,0.03
			l-1.37,0.07c-0.26,0-0.39-0.11-0.39-0.33c0-0.24,0.23-0.42,0.69-0.54c0.58-0.18,1.01-0.43,1.27-0.75
			c0.46-0.54,0.69-1.42,0.69-2.65v-11.1c0-1.83-0.31-3.16-0.93-4c-0.36-0.45-0.87-0.77-1.52-0.98l-0.25-0.07
			c-0.62-0.16-0.93-0.35-0.93-0.57c0-0.2,0.15-0.3,0.45-0.3c0.1,0,0.22,0.01,0.37,0.02l0.68,0.08l0.27,0.02l0.11,0l0,0l0.11,0
			l0.27-0.02l0.67-0.08l0.2-0.02l0,0l0.15-0.01l0,0c0.06,0,0.18,0.08,0.36,0.25l0.2,0.19l0.23,0.25l0,0l14.47,16.06l0,0l0.13,0.14
			c0.08,0.07,0.12,0.11,0.15,0.11c0.05,0,0.08-0.08,0.09-0.24l0-12.66c0-1.14-0.29-1.99-0.87-2.53c-0.28-0.27-0.74-0.49-1.36-0.66
			l-0.24-0.06c-0.59-0.14-0.88-0.32-0.88-0.54c0-0.2,0.11-0.3,0.33-0.3l0.25,0l0.49,0.02l1.1,0.07l0.41,0.02l0.34,0.01l0.29,0
			l0.34-0.01l0.88-0.04l1.01-0.05L280.89,137.22L280.89,137.22z M183.12,137.22c0.56,0,0.84,0.16,0.84,0.48
			c0,0.12-0.17,0.23-0.51,0.33c-0.46,0.12-0.79,0.26-1,0.42c-0.34,0.3-0.51,0.75-0.51,1.35v15.94c0,0.64,0.24,1.12,0.72,1.44
			c0.17,0.11,0.47,0.23,0.9,0.36l0.4,0.12c0.43,0.12,0.67,0.27,0.71,0.42l0.01,0.06c0,0.24-0.11,0.36-0.33,0.36l-0.31-0.01
			l-0.44-0.02l-0.83-0.05l-0.48-0.03l-0.42-0.02l-0.36-0.01c-0.57,0-1.13,0.01-1.66,0.03l-1.66,0.09l-0.03,0
			c-0.48,0-0.72-0.13-0.72-0.39c0-0.18,0.18-0.34,0.55-0.48l0.36-0.13c0.32-0.12,0.54-0.23,0.67-0.32c0.36-0.3,0.54-0.72,0.54-1.26
			v-7.79c-0.02-0.12-0.11-0.18-0.27-0.18h-11.1c-0.24,0-0.36,0.17-0.36,0.51v7.49c0,0.53,0.21,0.93,0.63,1.21l0.13,0.08
			c0.03,0.02,0.07,0.04,0.12,0.06l0.17,0.07l0.23,0.08l0.29,0.09l0.54,0.15l0,0c0.51,0.14,0.75,0.33,0.75,0.57
			c0,0.14-0.12,0.22-0.37,0.24l-0.12,0l-2.61-0.09L167,158.4l-0.52-0.01l-0.46,0l-0.56,0l-0.5,0.01l-0.44,0.02l-0.38,0.02
			l-0.57,0.05l-0.17,0.02l-0.04,0c-0.17-0.03-0.25-0.18-0.25-0.44c0-0.2,0.2-0.36,0.6-0.48c0.54-0.14,0.92-0.31,1.15-0.51
			c0.4-0.38,0.6-1,0.6-1.87v-15.4c0-0.64-0.23-1.11-0.69-1.41c-0.19-0.14-0.53-0.27-1.02-0.4l-0.22-0.05
			c-0.46-0.1-0.7-0.23-0.7-0.39c0-0.22,0.16-0.33,0.48-0.33l0.32,0l0.6,0.02l1.71,0.08l0.38,0.01l0.31,0l0.27,0l0.33-0.01l0.38-0.02
			l0.88-0.05l0.54-0.03l0.29-0.01l0.12,0l0,0c0.38,0,0.57,0.1,0.57,0.3c0,0.14-0.19,0.26-0.57,0.36c-0.48,0.14-0.83,0.29-1.03,0.45
			c-0.38,0.32-0.57,0.81-0.57,1.47v6.49c0,0.36,0.15,0.54,0.45,0.54h11.04c0.16,0,0.24-0.29,0.24-0.87v-6.16
			c0-0.6-0.19-1.05-0.57-1.35c-0.18-0.12-0.48-0.26-0.92-0.41l-0.2-0.07c-0.38-0.12-0.57-0.26-0.57-0.42c0-0.22,0.17-0.33,0.51-0.33
			l0.43,0.01l0.57,0.02l1.93,0.09l0.2,0c0.28,0,0.57-0.01,0.85-0.03l0.91-0.07l0.24-0.01L183.12,137.22z M255.42,137.22
			c0.2,0,0.3,0.22,0.3,0.66l0,0.53l-0.01,0.49l-0.02,0.44l-0.03,0.4c-0.01,0.19-0.03,0.37-0.05,0.52l-0.04,0.3
			c-0.1,0.6-0.25,0.9-0.45,0.9c-0.26,0-0.41-0.27-0.45-0.81c-0.04-0.68-0.13-1.12-0.27-1.32c-0.3-0.41-1.02-0.67-2.16-0.79
			l-0.3-0.03l-0.34-0.01l-1.56-0.01l-1.01,0l-0.47,0.01l-0.41,0.01l-0.36,0.02l-0.31,0.02l-0.26,0.03
			c-0.23,0.03-0.38,0.07-0.46,0.11c-0.21,0.13-0.32,0.7-0.32,1.7v5.59c0,0.52,0.05,0.82,0.14,0.9c0.05,0.04,0.15,0.07,0.32,0.09
			l0.23,0.02l0.14,0.01l0,0l0.32,0h3.26c0.92,0,1.6-0.21,2.02-0.63c0.23-0.21,0.41-0.53,0.55-0.95l0.06-0.19
			c0.12-0.42,0.26-0.63,0.42-0.63c0.22,0,0.33,0.19,0.33,0.57l-0.01,0.86l-0.04,1.57l-0.01,0.48l0,0.38l0.05,1.52l0.01,0.6
			c0,0.26-0.11,0.39-0.33,0.39c-0.2,0-0.34-0.18-0.44-0.55l-0.04-0.14c-0.14-0.64-0.28-1.06-0.42-1.26
			c-0.3-0.46-0.81-0.69-1.54-0.69h-4.47c-0.28,0-0.45,0.1-0.51,0.3l-0.01,0.04l-0.01,0.14l-0.01,0.33l0,0l0,5.68
			c0,0.15,0,0.29,0,0.43l0.01,0.38l0.01,0.17l0,0l0.03,0.3c0.04,0.32,0.09,0.54,0.16,0.65c0.24,0.38,0.94,0.57,2.08,0.57
			c2.05,0,3.78-0.27,5.18-0.81c0.86-0.32,1.58-0.74,2.17-1.27l0.87-0.84l0.15-0.15c0.01-0.01,0.01-0.02,0.01-0.02
			c0.14,0,0.22,0.09,0.24,0.27l0.01,0.1c0,0.84-0.5,1.81-1.51,2.92c-0.44,0.48-0.9,0.78-1.36,0.9c-0.08,0.02-0.18,0.04-0.31,0.06
			l-0.29,0.03l-0.17,0.01l0,0l-0.38,0.01l-0.22,0l0,0l-0.36,0l-0.67-0.01l-1.15-0.03l-1.49-0.05l-1.12-0.03l-0.67-0.01l-0.61,0
			l-0.55,0l-0.86,0.01l-1.48,0.05l-0.54,0.03l-0.71,0.03l-0.58,0.01l0,0c-0.3,0-0.45-0.1-0.45-0.3c0.02-0.16,0.2-0.32,0.54-0.48
			l0.79-0.3c0.36-0.18,0.61-0.49,0.72-0.93c0.04-0.18,0.08-0.43,0.1-0.76l0.02-0.43l0.01-0.5V141.1c0-0.92-0.07-1.56-0.21-1.93
			c-0.22-0.64-0.69-1.01-1.42-1.11c-0.6-0.16-0.9-0.32-0.9-0.48c0-0.24,0.35-0.36,1.06-0.36l2.36,0.01l1.09,0.01l1.03,0.01
			l4.09,0.09l3.84-0.12L255.42,137.22z M292,137.22c0.38,0,0.57,0.1,0.57,0.3c0,0.16-0.15,0.29-0.44,0.38l-0.13,0.04
			c-0.5,0.14-0.84,0.28-1.02,0.42c-0.38,0.3-0.57,0.78-0.57,1.44v16.15c0,0.58,0.23,1.01,0.69,1.29c0.07,0.04,0.18,0.09,0.34,0.14
			l0.26,0.08l0.32,0.09l0.38,0.1c0.41,0.12,0.64,0.28,0.69,0.47l0.01,0.07c0,0.18-0.16,0.28-0.48,0.3l-0.18,0l-0.5-0.02l-1.18-0.06
			l-0.59-0.03l-0.52-0.02l-0.45-0.01c-0.58,0-1.11,0.01-1.61,0.04l-1.28,0.08c-0.42,0-0.63-0.15-0.63-0.45c0-0.2,0.2-0.36,0.6-0.48
			c0.54-0.14,0.93-0.31,1.15-0.51c0.4-0.38,0.61-1,0.61-1.86v-15.4c0-0.64-0.21-1.11-0.63-1.41c-0.2-0.14-0.52-0.27-0.98-0.4
			l-0.2-0.05c-0.42-0.1-0.63-0.23-0.63-0.39c0-0.22,0.1-0.33,0.3-0.33l0.32,0l0.6,0.02l1.71,0.08l0.54,0.01h0.27l0.3-0.01l0.76-0.04
			l0.86-0.05l0.5-0.02L292,137.22z M212.21,137.22c0.38,0,0.57,0.14,0.57,0.42c0,0.14-0.15,0.26-0.44,0.35l-0.13,0.04
			c-0.48,0.14-0.83,0.3-1.05,0.48c-0.38,0.36-0.57,0.92-0.57,1.68l0,14.84l0.01,0.4l0.02,0.35c0.03,0.49,0.1,0.81,0.19,0.95
			c0.24,0.38,0.93,0.57,2.08,0.57c2.05,0,3.78-0.27,5.19-0.81c0.86-0.32,1.58-0.74,2.17-1.27l0.65-0.62l0.34-0.35
			c0.03-0.03,0.04-0.04,0.03-0.04c0.14,0,0.22,0.09,0.24,0.27l0.01,0.1c0,0.84-0.5,1.81-1.51,2.92c-0.44,0.48-0.9,0.78-1.36,0.9
			c-0.08,0.02-0.18,0.04-0.31,0.06l-0.29,0.03l-0.17,0.01l0,0l-0.38,0.01l-0.22,0l0,0l-0.36,0l-0.67-0.01l-1.15-0.03l-1.49-0.05
			l-1.12-0.03l-0.67-0.01l-0.61,0l-0.55,0l-0.86,0.01l-1.48,0.05l-0.54,0.03l-0.71,0.03l-0.58,0.01l0,0c-0.3,0-0.45-0.1-0.45-0.3
			c0.02-0.16,0.2-0.32,0.54-0.48l0.79-0.3c0.36-0.18,0.6-0.49,0.72-0.93c0.06-0.25,0.1-0.64,0.12-1.18l0.01-0.5v-15.25
			c0-0.6-0.42-1.05-1.27-1.34l-0.34-0.12l-0.28-0.11l-0.23-0.1l-0.18-0.09c-0.16-0.08-0.23-0.15-0.23-0.2c0-0.26,0.2-0.39,0.6-0.39
			l0.29,0.01l0.91,0.05c0.67,0.04,1.28,0.06,1.84,0.06c0.51,0,1-0.01,1.47-0.03L212.21,137.22z M201.43,137.22
			c0.2,0,0.3,0.22,0.3,0.66l0,0.53l-0.01,0.49l-0.02,0.44l-0.03,0.4c-0.01,0.19-0.03,0.37-0.05,0.52l-0.04,0.3
			c-0.1,0.6-0.25,0.9-0.45,0.9c-0.26,0-0.41-0.27-0.46-0.81c-0.04-0.68-0.13-1.12-0.27-1.32c-0.3-0.41-1.02-0.67-2.16-0.79
			l-0.3-0.03l-0.35-0.01l-1.56-0.01l-1.01,0l-0.47,0.01l-0.41,0.01l-0.36,0.02l-0.31,0.02l-0.26,0.03
			c-0.23,0.03-0.38,0.07-0.46,0.11c-0.15,0.09-0.25,0.41-0.29,0.95l-0.02,0.35l-0.01,0.4v5.59c0,0.52,0.05,0.82,0.14,0.9
			c0.05,0.04,0.15,0.07,0.32,0.09l0.23,0.02l0.14,0.01l0,0l0.32,0h3.25c0.93,0,1.6-0.21,2.02-0.63c0.26-0.24,0.46-0.62,0.6-1.14
			c0.12-0.42,0.26-0.63,0.42-0.63c0.22,0,0.33,0.19,0.33,0.57l-0.01,0.86l-0.04,1.74l0,0.55l0.02,0.84l0.03,0.82l0.01,0.6
			c0,0.26-0.11,0.39-0.33,0.39c-0.2,0-0.35-0.18-0.45-0.55l-0.04-0.14c-0.14-0.64-0.28-1.06-0.42-1.26
			c-0.3-0.46-0.81-0.69-1.54-0.69h-4.46c-0.28,0-0.45,0.1-0.51,0.3l-0.01,0.1l-0.01,0.08l0,0l-0.01,0.21l0,0.28v5.53
			c0,0.15,0,0.29,0,0.43l0.01,0.38c0.03,0.59,0.09,0.96,0.19,1.12c0.24,0.38,0.94,0.57,2.08,0.57c2.05,0,3.78-0.27,5.19-0.81
			c0.86-0.32,1.58-0.74,2.17-1.27l0.65-0.62l0.34-0.35l0.03-0.04c0,0,0,0,0,0c0.16,0,0.24,0.12,0.24,0.36c0,0.84-0.5,1.81-1.51,2.92
			c-0.44,0.48-0.9,0.78-1.36,0.9c-0.08,0.02-0.18,0.04-0.31,0.06l-0.29,0.03l-0.17,0.01l0,0l-0.38,0.01l-0.22,0l0,0l-0.37,0
			l-0.67-0.01l-1.15-0.03l-1.5-0.05l-1.12-0.03l-0.67-0.01l-0.61,0l-0.55,0l-0.86,0.01l-1.47,0.05l-0.54,0.03l-0.71,0.03l-0.58,0.01
			l0,0c-0.3,0-0.45-0.1-0.45-0.3c0.02-0.16,0.2-0.32,0.54-0.48l0.78-0.3c0.36-0.18,0.6-0.49,0.72-0.93c0.04-0.18,0.08-0.43,0.1-0.76
			l0.02-0.43l0.01-0.5V141.1c0-0.92-0.07-1.56-0.21-1.93c-0.22-0.64-0.69-1.01-1.42-1.11c-0.6-0.16-0.91-0.32-0.91-0.48
			c0-0.24,0.35-0.36,1.06-0.36l2.36,0.01l1.09,0.01l1.03,0.01l4.09,0.09l3.83-0.12L201.43,137.22z M230.1,137.22
			c0.38,0,0.57,0.14,0.57,0.42c0,0.14-0.15,0.26-0.44,0.35l-0.13,0.04c-0.48,0.14-0.83,0.3-1.06,0.48
			c-0.38,0.36-0.57,0.92-0.57,1.68v14.62c0,0.15,0,0.29,0,0.43l0.01,0.38c0.03,0.59,0.09,0.96,0.19,1.12
			c0.24,0.38,0.94,0.57,2.08,0.57c2.05,0,3.78-0.27,5.19-0.81c0.86-0.32,1.58-0.74,2.17-1.27l0.65-0.62l0.37-0.37
			c0.01-0.01,0.01-0.02,0.01-0.02c0.14,0,0.22,0.09,0.24,0.27l0.01,0.1c0,0.84-0.51,1.81-1.51,2.92c-0.44,0.48-0.89,0.78-1.36,0.9
			c-0.08,0.02-0.18,0.04-0.31,0.06l-0.29,0.03l-0.17,0.01l0,0l-0.39,0.01l-0.22,0l0,0l-0.36,0l-0.67-0.01l-1.15-0.03l-1.49-0.05
			l-1.12-0.03l-0.67-0.01l-0.61,0l-0.55,0l-0.86,0.01l-1.47,0.05l-0.54,0.03l-0.71,0.03l-0.58,0.01l0,0c-0.3,0-0.45-0.1-0.45-0.3
			c0.02-0.16,0.2-0.32,0.54-0.48l0.79-0.3c0.36-0.18,0.6-0.49,0.73-0.93c0.06-0.25,0.1-0.64,0.11-1.18l0.01-0.5v-15.25
			c0-0.6-0.42-1.05-1.27-1.34l-0.34-0.12l-0.28-0.11l-0.23-0.1l-0.18-0.09c-0.15-0.08-0.23-0.15-0.23-0.2c0-0.26,0.2-0.39,0.6-0.39
			l0.29,0.01l0.91,0.05c0.66,0.04,1.28,0.06,1.84,0.06c0.52,0,1.01-0.01,1.47-0.03L230.1,137.22z M108.09,94.42
			c0.62,6.23,4.06,12.01,8.84,16.81c0.18,0.18,0.35,0.35,0.53,0.52c5.32-4.61,11.43-8.61,18.34-11.82c0.64-0.3,1.41-0.02,1.71,0.62
			c0.3,0.64,0.02,1.41-0.62,1.7c-6.6,3.06-12.44,6.87-17.53,11.24c5.26,4.53,11.65,7.98,17.72,9.83c0.68,0.21,1.06,0.93,0.85,1.6
			c-0.21,0.68-0.93,1.06-1.61,0.85c-6.48-1.98-13.32-5.68-18.89-10.56c-1.3,1.19-2.54,2.43-3.73,3.69
			c-4.03,4.29-7.46,8.98-10.3,13.95c0.69,0.74,1.41,1.46,2.14,2.15c7.97,7.55,18.15,12.43,30.66,15.1c0.69,0.15,1.14,0.83,0.99,1.52
			c-0.15,0.69-0.83,1.14-1.53,0.99c-12.97-2.77-23.56-7.86-31.9-15.75c-0.56-0.54-1.12-1.08-1.66-1.64
			c-1.35,2.56-2.54,5.19-3.58,7.87c-0.25,0.66-1,0.99-1.66,0.73c-0.66-0.25-0.99-0.99-0.73-1.65c1.18-3.05,2.56-6.04,4.13-8.95
			c-6.53-7.44-11.42-16.95-14.74-28.84c-0.19-0.68,0.21-1.39,0.9-1.57c0.68-0.19,1.39,0.21,1.58,0.89
			c3.11,11.14,7.62,20.1,13.6,27.15c2.85-4.86,6.26-9.45,10.23-13.68c1.19-1.26,2.43-2.5,3.72-3.69l-0.44-0.43
			c-5.18-5.19-8.89-11.49-9.58-18.37c-0.07-0.7,0.45-1.33,1.16-1.4C107.4,93.2,108.02,93.71,108.09,94.42z M83.28,112.08
			c0.52,0.49,0.53,1.3,0.04,1.81l-0.74,0.78c-1.78,1.91-3.05,3.5-4.11,5.13c-1.19,1.83-2.14,3.75-3.24,6.24
			c-0.29,0.65-1.05,0.94-1.7,0.66c-0.65-0.28-0.95-1.04-0.66-1.69c1.15-2.6,2.14-4.61,3.44-6.6c1.22-1.87,2.68-3.67,4.75-5.86
			l0.4-0.42C81.95,111.61,82.77,111.59,83.28,112.08z M344.96,104.01c3.1,0,5.68,1,7.77,3.01c1.99,1.92,3.03,4.35,3.11,7.27
			l0.01,0.37c0,3.37-1.06,6.06-3.17,8.09c-2.11,2.02-4.85,3.04-8.23,3.04c-3.22,0-5.78-1.02-7.69-3.07
			c-1.91-2.05-2.87-4.68-2.87-7.91c0-3.11,1.07-5.68,3.2-7.73C339.22,105.03,341.85,104.01,344.96,104.01L344.96,104.01z
			 M195.28,104.28c0.17,0,0.27,0.07,0.3,0.2l0.01,0.07c0,0.2-0.15,0.36-0.45,0.48c-0.42,0.2-0.71,0.37-0.88,0.51
			c-0.3,0.32-0.45,0.8-0.45,1.44v17.41l-0.01,0.34l-0.02,0.29c-0.04,0.44-0.12,0.66-0.25,0.66c-0.23,0-0.57-0.24-1-0.7l-13.11-14.69
			l-0.11-0.12l-0.19-0.2c-0.17-0.17-0.28-0.25-0.33-0.25c-0.14,0-0.21,0.23-0.21,0.69v12.3c0,0.78,0.23,1.33,0.69,1.65
			c0.24,0.18,0.66,0.32,1.27,0.42c0.46,0.06,0.69,0.19,0.69,0.39c0,0.26-0.11,0.39-0.33,0.39l-0.38-0.01l-0.86-0.05
			c-0.64-0.04-1.24-0.06-1.81-0.06l-0.35,0l-0.63,0.02l-1.86,0.1c-0.26,0-0.4-0.11-0.4-0.33c0-0.24,0.23-0.42,0.69-0.54
			c0.58-0.18,1.01-0.43,1.27-0.75c0.46-0.54,0.69-1.42,0.69-2.65v-11.1c0-1.82-0.31-3.16-0.93-4c-0.36-0.44-0.87-0.77-1.53-0.98
			l-0.25-0.07c-0.62-0.16-0.94-0.35-0.94-0.57c0-0.2,0.15-0.3,0.45-0.3c0.1,0,0.22,0.01,0.37,0.02l0.68,0.08
			c0.15,0.01,0.27,0.02,0.37,0.02c0.1,0,0.22-0.01,0.37-0.02l0.67-0.08l0.1-0.01l0,0l0.17-0.01c0.02,0,0.05,0,0.07,0
			c0.04,0,0.11,0.04,0.2,0.11l0.16,0.14l0.09,0.09l0,0l0.28,0.29l0,0l14.53,16.12l0.13,0.14c0.08,0.07,0.12,0.11,0.15,0.11
			c0.06,0,0.09-0.11,0.09-0.33v-12.57c0-1.14-0.29-1.99-0.87-2.53c-0.29-0.27-0.74-0.49-1.36-0.66l-0.24-0.06
			c-0.58-0.14-0.87-0.32-0.87-0.54c0-0.2,0.11-0.3,0.33-0.3l0.25,0l0.31,0.01l0.57,0.03l0.7,0.04l0.41,0.02l0.34,0.01l0.29,0
			l0.34-0.01l0.64-0.03l1.41-0.07l0.45-0.01L195.28,104.28z M280.56,104.28c0.17,0,0.27,0.07,0.29,0.2l0.01,0.07
			c0,0.2-0.15,0.36-0.45,0.48c-0.42,0.2-0.71,0.37-0.87,0.51c-0.3,0.32-0.45,0.8-0.45,1.44v17.41l-0.01,0.34l-0.02,0.29
			c-0.04,0.44-0.12,0.66-0.25,0.66c-0.26,0-0.63-0.29-1.14-0.85L264.7,110.3l-0.21-0.23c-0.22-0.23-0.36-0.35-0.42-0.35
			c-0.14,0-0.21,0.23-0.21,0.69v12.3c0,0.78,0.23,1.33,0.69,1.65c0.24,0.18,0.66,0.32,1.27,0.42c0.46,0.06,0.69,0.19,0.69,0.39
			c0,0.26-0.11,0.39-0.33,0.39l-0.38-0.01l-0.86-0.05c-0.64-0.04-1.25-0.06-1.81-0.06l-0.34,0l-0.63,0.02l-1.86,0.1
			c-0.26,0-0.39-0.11-0.39-0.33c0-0.24,0.23-0.42,0.69-0.54c0.59-0.18,1.01-0.43,1.27-0.75c0.46-0.54,0.69-1.42,0.69-2.65v-11.1
			c0-1.82-0.31-3.16-0.94-4c-0.36-0.44-0.86-0.77-1.52-0.98l-0.25-0.07c-0.62-0.16-0.94-0.35-0.94-0.57c0-0.2,0.15-0.3,0.45-0.3
			c0.1,0,0.22,0.01,0.37,0.02l0.68,0.08c0.15,0.01,0.28,0.02,0.37,0.02c0.13,0,0.31-0.01,0.53-0.04l0.46-0.06l0.23-0.02
			c0.07,0,0.12-0.01,0.17-0.01c0.07,0,0.22,0.11,0.45,0.34l0.28,0.29l0,0l14.53,16.12l0.13,0.14c0.08,0.07,0.13,0.11,0.15,0.11
			c0.05,0,0.08-0.08,0.09-0.24l0-12.66c0-1.14-0.29-1.99-0.88-2.53c-0.28-0.27-0.74-0.49-1.36-0.66l-0.24-0.06
			c-0.58-0.14-0.87-0.32-0.87-0.54c0-0.2,0.11-0.3,0.33-0.3l0.25,0l0.31,0.01l0.57,0.03l0.7,0.04l0.41,0.02l0.34,0.01l0.29,0
			l0.34-0.01l0.64-0.03l1.41-0.07l0.45-0.01L280.56,104.28z M379.21,104.28c0.17,0,0.27,0.07,0.29,0.2l0.01,0.07
			c0,0.2-0.15,0.36-0.45,0.48c-0.42,0.2-0.71,0.37-0.87,0.51c-0.3,0.32-0.45,0.8-0.45,1.44v17.41l-0.01,0.34
			c-0.02,0.63-0.11,0.95-0.27,0.95c-0.25,0-0.63-0.29-1.13-0.85l-12.97-14.54l-0.21-0.23l-0.17-0.17c-0.13-0.12-0.21-0.18-0.26-0.18
			c-0.14,0-0.21,0.23-0.21,0.69v12.3c0,0.78,0.23,1.33,0.69,1.65c0.24,0.18,0.66,0.32,1.27,0.42c0.46,0.06,0.69,0.19,0.69,0.39
			c0,0.26-0.11,0.39-0.33,0.39l-0.38-0.01l-0.86-0.05c-0.64-0.04-1.25-0.06-1.81-0.06l-0.35,0l-0.63,0.02l-1.86,0.1
			c-0.26,0-0.39-0.11-0.39-0.33c0-0.24,0.23-0.42,0.7-0.54c0.58-0.18,1-0.43,1.26-0.75c0.46-0.54,0.69-1.42,0.69-2.65v-11.1
			c0-1.82-0.31-3.16-0.93-4c-0.36-0.44-0.87-0.77-1.53-0.98l-0.25-0.07c-0.62-0.16-0.93-0.35-0.93-0.57c0-0.2,0.15-0.3,0.45-0.3
			c0.1,0,0.22,0.01,0.37,0.02l0.68,0.08c0.15,0.01,0.27,0.02,0.37,0.02c0.13,0,0.3-0.01,0.53-0.04l0.46-0.06l0.23-0.02
			c0.07,0,0.12-0.01,0.17-0.01c0.04,0,0.11,0.04,0.2,0.11l0.16,0.14l0.2,0.19l0.23,0.25l14.38,15.97l0.15,0.16l0.11,0.11
			c0.05,0.04,0.08,0.06,0.1,0.06c0.06,0,0.09-0.11,0.09-0.33v-12.57c0-1.14-0.29-1.99-0.87-2.53c-0.29-0.27-0.74-0.49-1.36-0.66
			l-0.24-0.06c-0.58-0.14-0.87-0.32-0.87-0.54c0-0.2,0.11-0.3,0.33-0.3l0.25,0l0.31,0.01l0.57,0.03l0.7,0.04l0.41,0.02l0.34,0.01
			l0.29,0l0.34-0.01l0.64-0.03l1.4-0.07l0.45-0.01L379.21,104.28z M412.79,104.28c0.38,0,0.57,0.14,0.57,0.42
			c0,0.16-0.19,0.29-0.57,0.39c-0.48,0.14-0.83,0.3-1.06,0.48c-0.38,0.36-0.57,0.92-0.57,1.69l0,14.85l0.02,0.62l0,0l0.03,0.34
			c0.04,0.36,0.09,0.6,0.17,0.72c0.24,0.38,0.94,0.57,2.08,0.57c2.05,0,3.78-0.27,5.19-0.81c0.86-0.32,1.58-0.74,2.17-1.27
			l0.72-0.69l0.25-0.25l0.06-0.08l0,0c0.14,0,0.22,0.09,0.24,0.26l0.01,0.1c0,0.84-0.5,1.82-1.51,2.92
			c-0.44,0.48-0.89,0.78-1.36,0.9c-0.16,0.05-0.41,0.08-0.76,0.1l-0.39,0.01l-0.45,0l-1-0.01l-2.44-0.07l0,0l-1.12-0.03l-0.67-0.01
			l-0.89,0l-0.52,0.01l-0.73,0.02l-1.34,0.05l-0.8,0.04l-0.67,0.02l-0.37,0c-0.3,0-0.45-0.1-0.45-0.3c0.02-0.16,0.2-0.32,0.54-0.48
			l0.79-0.3c0.36-0.18,0.6-0.49,0.72-0.93c0.05-0.21,0.09-0.54,0.11-0.96l0.01-0.46l0-15.51c0-0.56-0.36-0.98-1.09-1.27l-0.51-0.18
			l-0.28-0.11l-0.23-0.1c-0.28-0.12-0.41-0.22-0.41-0.29c0-0.23,0.16-0.36,0.48-0.39l0.18,0l0.36,0.01l0.8,0.04
			c0.66,0.04,1.28,0.06,1.84,0.06c0.51,0,1-0.01,1.47-0.03L412.79,104.28z M169.72,104.28c0.38,0,0.57,0.1,0.57,0.3
			c0,0.16-0.15,0.29-0.45,0.39l-0.12,0.03c-0.5,0.14-0.84,0.28-1.03,0.42c-0.38,0.3-0.57,0.78-0.57,1.44v16.15
			c0,0.58,0.23,1.01,0.7,1.29c0.04,0.02,0.08,0.04,0.14,0.06l0.2,0.07l0.26,0.08l0.32,0.09l0.38,0.1c0.46,0.14,0.69,0.32,0.69,0.54
			c0,0.2-0.2,0.3-0.6,0.3l-0.31-0.01l-1.73-0.08l-0.8-0.03l-0.45-0.01c-0.58,0-1.12,0.01-1.61,0.04l-0.53,0.03l-0.75,0.05
			c-0.42,0-0.63-0.15-0.63-0.45c0-0.2,0.2-0.36,0.61-0.48c0.54-0.14,0.92-0.31,1.14-0.51c0.4-0.38,0.6-1,0.6-1.86v-15.4
			c0-0.64-0.21-1.11-0.63-1.41c-0.19-0.14-0.52-0.27-0.97-0.4l-0.2-0.05c-0.42-0.1-0.63-0.23-0.63-0.39c0-0.22,0.1-0.33,0.3-0.33
			l0.32,0l0.38,0.01l0.7,0.03l0.78,0.04l0.64,0.03l0.49,0.01l0.43-0.01l0.55-0.03l0.88-0.05l0.38-0.02l0.32-0.01L169.72,104.28z
			 M320.81,104.28c0.34,0,0.57,0.06,0.68,0.18c0.1,0.1,0.16,0.29,0.19,0.55l0.01,0.14l0.15,2.4l0,0.13
			c-0.01,0.36-0.12,0.54-0.33,0.54c-0.25,0-0.4-0.16-0.46-0.48l-0.02-0.13c-0.06-0.54-0.16-0.9-0.3-1.08
			c-0.28-0.37-0.8-0.57-1.57-0.6l-0.22,0h-4.31c-0.12,0-0.23,0-0.33,0l-0.27,0.01c-0.29,0.02-0.45,0.06-0.5,0.12
			c-0.03,0.04-0.05,0.14-0.07,0.3l-0.02,0.22l-0.01,0.28l-0.01,0.53v15.34c0,0.72,0.21,1.24,0.63,1.56c0.17,0.12,0.5,0.25,0.96,0.37
			l0.21,0.05c0.42,0.1,0.63,0.26,0.63,0.48c0,0.24-0.09,0.36-0.27,0.36l-0.2,0l-0.41-0.02l-0.99-0.07l-0.55-0.03l-0.29-0.01l-1.06,0
			l-0.93,0.01l-0.54,0.01l-0.84,0.04l-0.76,0.05c-0.24,0-0.36-0.13-0.36-0.39c0-0.18,0.2-0.35,0.6-0.51l0.53-0.19l0,0l0.28-0.11
			l0.22-0.1c0.06-0.03,0.11-0.06,0.15-0.09c0.36-0.27,0.55-0.62,0.59-1.06l0.01-0.17v-15.64l-0.01-0.37
			c-0.02-0.62-0.11-0.96-0.25-1.01l-0.04-0.01h-4.92c-0.86,0-1.45,0.14-1.75,0.42c-0.07,0.08-0.16,0.23-0.26,0.44l-0.12,0.28
			l-0.13,0.34l-0.07,0.19l0,0l-0.15,0.43c-0.14,0.46-0.31,0.69-0.51,0.69c-0.18,0-0.28-0.09-0.3-0.28l-0.01-0.08l0.33-2.92
			l0.09-0.72c0.08-0.3,0.23-0.45,0.45-0.45l1.66,0.02l3.37,0.07l1.85,0.03l1.14,0.01h1.37l1.62-0.01l2.32-0.03l0,0L320.81,104.28z
			 M393.09,103.8c0.07,0,0.18,0.14,0.33,0.42l0.11,0.24l0.13,0.29L400,120.4l0.66,1.74c0.28,0.68,0.56,1.24,0.85,1.69
			c0.29,0.45,0.77,0.76,1.45,0.92l0.21,0.04c0.61,0.11,0.94,0.26,0.99,0.46l0.01,0.05c0,0.18-0.14,0.27-0.42,0.27l-0.3,0l-1.02-0.03
			l-1.28-0.06l-0.8-0.02l-0.31,0l-0.26,0.01l-0.33,0.01l-0.4,0.02l-0.66,0.04l-0.37,0.02l-0.43,0.01c-0.45,0-0.66-0.1-0.66-0.3
			c0-0.2,0.3-0.41,0.9-0.62c0.6-0.21,0.9-0.53,0.9-0.95c0-0.06-0.01-0.13-0.03-0.23l-0.05-0.22l-0.08-0.27l-0.1-0.32l-0.13-0.38
			l-0.24-0.66l-0.19-0.51l-1.07-2.74c-0.3-0.76-0.74-1.14-1.33-1.14h-6.63c-0.74,0-1.22,0.21-1.42,0.64l-1.94,4.21
			c-0.14,0.3-0.21,0.65-0.21,1.05c0,0.6,0.18,1.02,0.54,1.26c0.16,0.1,0.45,0.2,0.87,0.29l0.19,0.04c0.36,0.06,0.54,0.19,0.54,0.39
			c0,0.21-0.07,0.34-0.2,0.4l-0.09,0.03l0,0l-0.05,0.01l0,0l-0.14,0.01l-0.33,0.01l-0.28,0l-0.35-0.01l-0.41-0.02l-0.68-0.04
			l-0.54-0.03l-0.28-0.01l-0.27,0.01l-0.33,0.01l-0.4,0.02l-0.64,0.04l-0.36,0.02l-0.41,0.01c-0.18,0-0.27-0.11-0.27-0.33
			c0-0.14,0.27-0.31,0.81-0.51c0.62-0.24,1.09-0.68,1.39-1.32l7.21-15.34c0.54-1.18,1.09-2.37,1.66-3.55
			C392.71,104.04,392.91,103.8,393.09,103.8L393.09,103.8z M293.54,103.8c0.09,0,0.21,0.18,0.38,0.53l0.18,0.41l0,0l6.34,15.65
			l0.66,1.74c0.28,0.68,0.56,1.24,0.84,1.69c0.29,0.45,0.78,0.76,1.45,0.92l0.21,0.04c0.61,0.11,0.94,0.26,0.99,0.46l0.01,0.05
			c0,0.18-0.14,0.27-0.42,0.27l-0.3,0l-1.02-0.03l-1.28-0.06l-0.8-0.02l-0.31,0l-0.26,0.01l-0.33,0.01l-0.4,0.02l-0.66,0.04
			l-0.37,0.02l-0.44,0.01c-0.44,0-0.66-0.1-0.66-0.3c0-0.18,0.25-0.37,0.75-0.56l0.16-0.06c0.61-0.21,0.9-0.53,0.9-0.95
			c0-0.06-0.01-0.13-0.03-0.23l-0.05-0.22c-0.02-0.08-0.05-0.17-0.08-0.27l-0.1-0.32l-0.13-0.38l-0.24-0.66l-0.3-0.78l-0.96-2.47
			c-0.3-0.76-0.74-1.14-1.33-1.14h-6.62c-0.74,0-1.22,0.21-1.42,0.64l-1.94,4.21c-0.14,0.3-0.21,0.65-0.21,1.05
			c0,0.6,0.18,1.02,0.54,1.26c0.16,0.1,0.45,0.2,0.87,0.29l0.19,0.04c0.36,0.06,0.54,0.19,0.54,0.39c0,0.21-0.07,0.34-0.2,0.4
			l-0.09,0.03l0,0l-0.05,0.01l0,0l-0.14,0.01l-0.34,0.01l-0.28,0l-0.34-0.01l-0.41-0.02l-0.68-0.04l-0.54-0.03l-0.28-0.01
			l-0.27,0.01l-0.33,0.01l-0.39,0.02l-0.64,0.04l-0.36,0.02l-0.41,0.01c-0.18,0-0.27-0.11-0.27-0.33c0-0.14,0.27-0.31,0.81-0.51
			c0.62-0.24,1.09-0.68,1.39-1.32l7.21-15.34c0.36-0.79,0.73-1.58,1.1-2.37l0.56-1.18C293.16,104.04,293.36,103.8,293.54,103.8
			L293.54,103.8z M216.07,104.28c0.34,0,0.57,0.06,0.68,0.18c0.11,0.12,0.18,0.35,0.19,0.69l0.15,2.4c0.02,0.44-0.09,0.66-0.33,0.66
			c-0.25,0-0.4-0.16-0.46-0.48l-0.02-0.13c-0.06-0.54-0.16-0.9-0.3-1.08c-0.3-0.4-0.9-0.6-1.78-0.6h-4.31c-0.12,0-0.23,0-0.33,0
			l-0.27,0.01c-0.29,0.02-0.45,0.06-0.5,0.12c-0.02,0.03-0.04,0.1-0.06,0.21l-0.02,0.19l-0.01,0.25l-0.01,0.31l0,0.37v15.34
			c0,0.72,0.21,1.24,0.63,1.56c0.18,0.12,0.5,0.25,0.97,0.37l0.21,0.05c0.42,0.1,0.63,0.26,0.63,0.48c0,0.24-0.09,0.36-0.27,0.36
			l-0.2,0l-0.41-0.02l-1-0.07l-0.55-0.03l-0.29-0.01l-1.06,0l-0.93,0.01l-0.54,0.01l-0.84,0.04l-0.76,0.05
			c-0.24,0-0.36-0.13-0.36-0.39c0-0.18,0.2-0.35,0.6-0.51l0.37-0.13l0.16-0.06l0,0l0.28-0.11c0.16-0.07,0.29-0.13,0.37-0.18
			c0.4-0.3,0.6-0.71,0.6-1.23v-15.64l-0.01-0.37c-0.02-0.68-0.12-1.02-0.29-1.02h-4.92c-0.86,0-1.45,0.14-1.75,0.42
			c-0.1,0.12-0.23,0.36-0.38,0.72l-0.13,0.34l-0.07,0.19l0,0l-0.15,0.43c-0.14,0.46-0.31,0.69-0.51,0.69c-0.2,0-0.3-0.12-0.3-0.36
			l0.33-2.92l0.09-0.72c0.08-0.3,0.23-0.45,0.45-0.45l1.42,0.01l3.61,0.07l1.85,0.03l1.14,0.01h1.37l1.62-0.01l2.32-0.03l0,0
			L216.07,104.28z M331.17,104.28c0.38,0,0.57,0.1,0.57,0.3c0,0.16-0.15,0.29-0.44,0.38l-0.13,0.04c-0.5,0.14-0.84,0.28-1.02,0.42
			c-0.38,0.3-0.57,0.78-0.57,1.44v16.15c0,0.58,0.23,1.01,0.69,1.29c0.04,0.02,0.08,0.04,0.14,0.06l0.2,0.07l0.12,0.04l0,0
			l0.29,0.09l0.55,0.15l0,0c0.41,0.12,0.64,0.28,0.69,0.47l0.01,0.07c0,0.2-0.2,0.3-0.6,0.3l-0.31-0.01l-1.72-0.08l-0.8-0.03
			l-0.45-0.01c-0.58,0-1.12,0.01-1.61,0.04l-0.53,0.03l-0.75,0.05c-0.42,0-0.63-0.15-0.63-0.45c0-0.2,0.2-0.36,0.6-0.48
			c0.54-0.14,0.93-0.31,1.15-0.51c0.4-0.38,0.6-1,0.6-1.86v-15.4c0-0.64-0.21-1.11-0.63-1.41c-0.19-0.14-0.52-0.27-0.97-0.4
			l-0.2-0.05c-0.42-0.1-0.63-0.23-0.63-0.39c0-0.22,0.1-0.33,0.3-0.33l0.32,0l0.39,0.01l0.7,0.03l0.78,0.04l0.64,0.03l0.48,0.01
			l0.43-0.01l0.55-0.03l0.88-0.05l0.38-0.02l0.32-0.01L331.17,104.28z M233.85,104.28c0.2,0,0.3,0.22,0.3,0.66l0,0.53l-0.01,0.49
			l-0.02,0.55l0,0l-0.04,0.57l0,0l-0.05,0.4l-0.02,0.14l0,0l-0.05,0.25c-0.1,0.43-0.23,0.64-0.4,0.64c-0.26,0-0.41-0.27-0.45-0.81
			c-0.04-0.68-0.13-1.12-0.27-1.32c-0.32-0.44-1.12-0.71-2.41-0.81l-0.29-0.01l-1.66-0.02l-1.01,0l-0.68,0.01l-0.39,0.01l-0.41,0.02
			l0,0l-0.33,0.03l-0.2,0.03c-0.12,0.02-0.2,0.05-0.25,0.08c-0.18,0.11-0.29,0.54-0.31,1.3l-0.01,0.4v5.59l0.01,0.31
			c0.01,0.33,0.06,0.52,0.13,0.59c0.05,0.05,0.2,0.08,0.43,0.1l0.26,0.01l0.32,0h3.26c0.92,0,1.6-0.21,2.02-0.63
			c0.23-0.21,0.41-0.53,0.54-0.95l0.06-0.19c0.12-0.42,0.26-0.63,0.42-0.63c0.22,0,0.33,0.19,0.33,0.57l-0.01,0.66l-0.05,1.77
			l-0.01,0.48l0,0.38l0.05,1.69l0.01,0.43c0,0.26-0.11,0.39-0.33,0.39c-0.22,0-0.38-0.23-0.48-0.69c-0.14-0.64-0.28-1.06-0.42-1.26
			c-0.3-0.46-0.81-0.69-1.54-0.69h-4.46c-0.28,0-0.46,0.1-0.52,0.3l-0.01,0.04l-0.01,0.14l-0.01,0.21l0,6.05l0.01,0.43l0.01,0.19
			l0,0l0.03,0.34c0.04,0.36,0.09,0.6,0.17,0.72c0.24,0.38,0.94,0.57,2.08,0.57c2.05,0,3.78-0.27,5.19-0.81
			c0.86-0.32,1.58-0.74,2.17-1.27l0.73-0.71l0.28-0.29c0.01-0.01,0.02-0.02,0.01-0.02c0.14,0,0.22,0.09,0.24,0.26l0.01,0.1
			c0,0.84-0.5,1.82-1.51,2.92c-0.44,0.48-0.89,0.78-1.36,0.9c-0.16,0.05-0.41,0.08-0.76,0.1l-0.39,0.01l-0.45,0l-1-0.01l-2.44-0.07
			l0,0l-1.12-0.03l-0.67-0.01l-0.89,0l-0.52,0.01l-0.74,0.02l-1.34,0.05l-0.8,0.04l-0.67,0.02l-0.38,0c-0.3,0-0.45-0.1-0.45-0.3
			c0.02-0.16,0.2-0.32,0.54-0.48l0.79-0.3c0.36-0.18,0.6-0.49,0.72-0.93c0.06-0.25,0.1-0.65,0.11-1.19l0.01-0.5v-13.71
			c0-0.92-0.07-1.56-0.21-1.93c-0.22-0.64-0.69-1.01-1.42-1.11c-0.6-0.16-0.9-0.32-0.9-0.48c0-0.24,0.35-0.36,1.06-0.36l2.36,0.01
			l1.62,0.02l1,0.02l3.6,0.08l3.84-0.11L233.85,104.28z M245.8,104.28c1.65,0,2.91,0.14,3.77,0.42c2.25,0.76,3.38,2.35,3.38,4.78
			c0,1.14-0.36,2.18-1.08,3.12c-0.72,0.94-1.62,1.63-2.7,2.08l5.02,7.62c0.62,0.96,1.26,1.65,1.93,2.08
			c0.34,0.22,0.76,0.39,1.27,0.51c0.26,0.05,0.41,0.14,0.44,0.27l0.01,0.06c0,0.18-0.38,0.3-1.14,0.34l-0.38,0.01l-0.43,0
			c-1.01,0-1.9-0.32-2.69-0.96c-0.56-0.48-1.17-1.24-1.84-2.29l-3.34-5.26c-0.08-0.13-0.16-0.26-0.24-0.37l-0.22-0.32
			c-0.31-0.43-0.55-0.69-0.72-0.76c-0.06-0.02-0.15-0.04-0.29-0.06l-0.23-0.02l-0.29-0.02l-0.35-0.02l-0.63-0.02l-0.76-0.01l-0.28,0
			c-0.42,0-0.67,0.1-0.75,0.3l-0.01,0.03l-0.01,0.11l-0.01,0.22l0,0l0,6.52c0,0.74,0.27,1.28,0.81,1.62
			c0.14,0.08,0.38,0.18,0.72,0.27l0.57,0.15l0,0l0.22,0.05c0.54,0.12,0.81,0.31,0.81,0.57c0,0.14-0.13,0.22-0.39,0.24l-0.1,0
			l-0.16-0.01l-0.75-0.05l-0.55-0.03l-0.61-0.02l-0.68-0.01l-0.74,0l-0.32,0l-0.62,0.02l-1.56,0.07l-0.62,0.02l-0.32,0
			c-0.2,0-0.3-0.11-0.3-0.33c0-0.18,0.19-0.35,0.57-0.51c0.52-0.2,0.88-0.39,1.06-0.57c0.38-0.36,0.57-0.87,0.57-1.54v-15.31
			c0-0.84-0.22-1.42-0.66-1.74c-0.22-0.16-0.64-0.3-1.27-0.42c-0.44-0.1-0.66-0.27-0.66-0.51c0-0.24,0.2-0.36,0.6-0.36l0.06,0
			l0.16,0.01l0.36,0.04c0.07,0.01,0.16,0.02,0.25,0.03l0.39,0.02l0,0l0.48,0.01l0.61,0l0.97-0.02l0.89-0.03l1.43-0.05l0.86-0.02
			L245.8,104.28z M344.06,105c-2.43,0-4.39,0.89-5.88,2.68c-1.39,1.68-2.08,3.77-2.08,6.25c0,2.93,0.85,5.44,2.56,7.55
			c1.85,2.26,4.2,3.4,7.05,3.4c2.25,0,4.14-0.83,5.66-2.5c1.45-1.59,2.21-3.66,2.27-6.22l0.01-0.37c0-2.87-0.87-5.35-2.59-7.46
			C349.22,106.12,346.89,105,344.06,105L344.06,105z M292.78,107.8c-0.08,0-0.17,0.08-0.25,0.26l-3.4,7.31
			c-0.05,0.12-0.08,0.21-0.08,0.27c0,0.19,0.16,0.28,0.48,0.28h5.97c0.38,0,0.57-0.09,0.57-0.27c0-0.03,0-0.06-0.01-0.1l-0.04-0.15
			l0,0l-0.03-0.09l-2.97-7.24C292.95,107.89,292.86,107.8,292.78,107.8L292.78,107.8z M392.33,107.8c-0.08,0-0.17,0.08-0.25,0.26
			l-3.4,7.31c-0.05,0.12-0.08,0.21-0.08,0.27c0,0.19,0.16,0.28,0.48,0.28h5.97c0.38,0,0.57-0.09,0.57-0.27
			c0-0.04-0.01-0.09-0.03-0.17l-0.05-0.17l-2.96-7.24C392.5,107.89,392.41,107.8,392.33,107.8L392.33,107.8z M244.93,105.28
			l-0.41,0.01c-0.43,0.01-0.72,0.05-0.86,0.12c-0.3,0.14-0.46,0.47-0.46,0.99v7.64c0,0.24,0.37,0.38,1.12,0.42h2.17
			c1.01,0,1.87-0.25,2.59-0.75c1-0.68,1.53-1.76,1.59-3.24l0.01-0.28c0-1.7-0.59-2.98-1.78-3.82
			C247.9,105.64,246.57,105.28,244.93,105.28L244.93,105.28z M102.65,98.83c0.27,0.65-0.04,1.4-0.7,1.68
			c-1.07,0.44-2.08,0.94-3.13,1.56c-1.06,0.63-2.18,1.39-3.45,2.36c-0.57,0.43-1.37,0.32-1.8-0.24c-0.43-0.56-0.32-1.37,0.24-1.79
			c1.37-1.04,2.56-1.85,3.7-2.53c0.99-0.59,1.95-1.07,2.94-1.51l0.5-0.21C101.62,97.87,102.38,98.18,102.65,98.83z M136.48,93.09
			c0.68,0.18,1.1,0.88,0.92,1.56c-0.18,0.68-0.88,1.09-1.57,0.92c-3.14-0.81-7.61-1.2-11.91-1.14c-4.08,0.05-7.96,0.51-10.27,1.4
			c-0.67,0.25-1.41-0.07-1.66-0.73c-0.26-0.66,0.07-1.4,0.73-1.65c2.6-1,6.81-1.52,11.17-1.57
			C128.4,91.81,133.13,92.23,136.48,93.09z"/>
	</g>
</g>
</svg>
